Simulation
nRows=32
nColumns=15
endheader
time  TH_x TH_y TH_z SC_y  SC_z  SC_x  AC_y  AC_z  AC_x  GH_y  GH_z  GH_yy  EL_x  PS_y
0.0  0.000000  0.000000  0.000000  -41.02050803693333  6.22602390554664  5.263889421023131  35.533814516593566  -11.626756259042931  -11.482195678648221  -121.77592617870681  23.229744716831437  158.99778403066148  26.041007775946962  120.000000
0.05745  0.000000  0.000000  0.000000  -31.965862632467445  9.388031178219329  1.956687838424668  36.278949763403126  0.1274033781280532  -3.8827002738124885  -136.8851056663935  20.36587344181368  167.90422649850458  29.735489280792045  120.000000
0.1149  0.000000  0.000000  0.000000  -46.4695900166477  21.34976957408953  6.176488670214996  39.69811541548338  1.6037996722528691  6.9133872156347795  172.53963714574235  18.600381960104613  -157.91815221621619  20.581103771704907  120.000000
0.17235  0.000000  0.000000  0.000000  -58.44578371333518  22.11561812926243  13.858194152329634  41.47528352876273  1.4720197303011673  6.07002644958039  117.63482974076278  26.029127039104456  -110.82149076782589  21.11432507093492  120.000000
0.2298  0.000000  0.000000  0.000000  -49.153558319838474  5.206232829099248  12.877814086356326  44.727411265302656  1.3892788947333088  -8.014489821699312  74.37220286654996  46.76849349132464  -59.16054221649111  26.15621529934036  120.000000
0.28725  0.000000  0.000000  0.000000  -37.874322070348526  -9.085667873961945  6.990779759506623  46.796200608119776  8.627179038977587  -12.750550825759792  63.79247415775644  66.2570709450939  -57.4763597741351  29.587248792068703  120.000000
0.3447  0.000000  0.000000  0.000000  -39.04799658500827  -0.8792647147696261  -4.256919250196239  57.91976616169352  15.498862110499715  10.397612004186099  66.07488783943676  65.43676398490294  -87.61123111927299  29.84982606689304  120.000000
0.40215  0.000000  0.000000  0.000000  -41.403169364456716  4.523117572107954  -22.400982210621795  69.4144810905494  15.633760150017954  33.659189485252135  67.51977399219378  68.54014461961974  -94.77330566076695  21.89301478268163  120.000000
0.4596  0.000000  0.000000  0.000000  -39.572760219787654  4.016192614103416  -20.029795713922358  71.10638381082418  7.597833041533714  38.033766472059604  72.15751922930811  70.47501690468071  -89.9288795527568  15.327024304073412  120.000000
0.51705  0.000000  0.000000  0.000000  -43.08323446807418  12.901960811327385  -11.759516840676579  70.42847843403605  20.166413429716467  31.61211586038373  70.70261542309864  65.18210590415968  -74.25472784811011  14.003051272829365  120.000000
0.5745  0.000000  0.000000  0.000000  -65.04432558736868  0.4282954642578495  5.582147198880295  70.20699147854216  32.05510461384257  15.310985211075614  83.77484306710367  65.84128292224216  -45.13397930189529  15.043736271825404  120.000000
0.63195  0.000000  0.000000  0.000000  -53.92486407861535  -5.4103199262015425  23.01008538647829  54.819582148683736  10.244907753015235  -11.983632112282354  87.08863288185026  74.29861787530749  -32.56090914973882  22.04279036543838  120.000000
0.6894  0.000000  0.000000  0.000000  -34.54848122095689  6.207566780563713  21.204604530242626  43.18172377728121  -9.247037092395178  -16.40391518139853  68.36266721669517  70.657092948984  -14.310968565418316  28.110055695731678  120.000000
0.74685  0.000000  0.000000  0.000000  -37.602159994888005  -12.545069069721942  23.239810140935397  53.55963274598922  -8.244438700563913  -16.269467914178016  47.043130259985126  62.12164494519534  3.6869973714915996  30.979195464904414  120.000000
0.8043  0.000000  0.000000  0.000000  -47.446843165236665  -15.508938528437112  7.396963128665894  51.43466206879775  14.035878007551263  -27.652187515344764  68.27822312801958  60.284349498379015  -33.47107666982704  27.514525115685903  120.000000
0.86175  0.000000  0.000000  0.000000  -59.64341517219599  8.033140835342314  3.68657984984333  46.262680144133924  28.439493771550698  2.3120777913449615  111.79269392470454  48.833546434164525  -73.44353911361628  18.262829763708503  120.000000
0.9192  0.000000  0.000000  0.000000  -65.48879341686008  17.83292350825698  4.000011476256792  52.73614930754663  13.545244428177092  15.682348744112966  108.4000771575021  35.94985950559368  -63.27801284863219  14.93750086123247  120.000000
0.97665  0.000000  0.000000  0.000000  -53.758575068550876  -5.095388574196853  3.383690716437731  54.57021954357484  -10.8704025594132  -2.188311423092065  59.212111202228975  36.558417711907104  -13.389725996630455  18.794544611815784  120.000000
1.0341  0.000000  0.000000  0.000000  -30.87699572427639  -17.526449882761188  31.607144984220202  71.98496534120505  -24.66458233016794  -2.8082566517597227  12.761993698783836  18.54254529214815  9.446574202860042  17.989967891353224  120.000000
1.09155  0.000000  0.000000  0.000000  -45.625500626870284  8.783047630161596  29.05766071223818  49.00266467670736  -15.136036577724454  -9.466757299362317  157.09720797368774  20.475633667527795  -152.8221107207365  17.969366009708285  120.000000
1.149  0.000000  0.000000  0.000000  -67.96916252618496  26.621577290293793  21.61794094619821  34.12637121206732  -9.555702323887008  -10.005736428222678  102.50206401628769  34.86837325528992  -128.22143155273642  30.433965900979622  120.000000
1.20645  0.000000  0.000000  0.000000  -62.32208317193004  -0.6374686365212675  19.64314230018542  55.05498246724681  -6.805178295025684  -7.3780046901479395  19.516104319685443  44.33423178096648  -46.1618525594805  31.831262048192396  120.000000
1.2639  0.000000  0.000000  0.000000  -45.722823643989805  -14.796799619504808  11.751312720931912  52.07629137779733  1.6492613226767252  -20.14225576378808  -8.030555034047614  71.62186097608433  33.392223111181046  29.613558772690133  120.000000
1.32135  0.000000  0.000000  0.000000  -42.033359567366965  13.664321638871595  27.82122741779685  68.6538003384252  -3.893106148157866  -19.7181903875652  -17.43590221201148  37.41299006288088  63.48998512535772  29.832728242929395  120.000000
1.3788  0.000000  0.000000  0.000000  -70.10605539236082  21.93158871984737  53.77700130425811  69.97348730675272  14.394840770361485  7.961394437059962  -101.52925899960613  29.109389845581912  146.56758007134687  25.410598636550816  120.000000
1.43625  0.000000  0.000000  0.000000  -75.35530656299943  8.113622006642077  2.8427575433883323  43.00082487743182  15.8456327309939  12.384159627180377  -2.3499649671523035  54.18886440947275  51.367767022419685  18.075774329468942  120.000000
1.4937  0.000000  0.000000  0.000000  -58.543988039337655  -0.14472074309773708  -0.5990114793539809  51.009152045983704  4.094841828079258  -10.654426657873737  6.12621135777473  68.04494873869223  29.878389768670264  8.943566120678774  120.000000
1.55115  0.000000  0.000000  0.000000  -29.053450084477866  -1.811062404400535  -2.8979707147706257  29.481400050847554  -5.617760350617106  -5.288702213662706  4.718130174516629  68.25362580852503  47.77943350216842  6.244851192238297  120.000000
1.6086  0.000000  0.000000  0.000000  -43.60564228675209  -1.8088603275774  5.360721505425964  54.152165021040425  -16.73474087824305  -4.993873778644642  1.3412289837371478  61.76771737010017  49.18108358391182  18.163613284934783  120.000000
1.66605  0.000000  0.000000  0.000000  -67.78400372112596  3.2400813446836  41.30682405642006  53.27078800995679  21.1173179893044  -14.610469658726922  -105.5576799573637  30.564947541407193  150.3739069906545  31.7959406459399  120.000000
1.7235  0.000000  0.000000  0.000000  -66.16576861134726  8.894928488953594  11.076779429880666  55.01268794223052  41.103355285323076  23.262690927855218  -118.24376738355859  30.609670974756114  137.62110878790048  32.7593458080668  120.000000
1.78095  0.000000  0.000000  0.000000  -64.64760972357239  3.412849248281345  1.4063323762929205  76.35863875595597  33.242812825817076  24.239599161771608  -140.54564821740996  30.583343200695932  115.38762021614434  32.901578523900845  120.000000
